<?xml version="1.0" encoding="UTF-8" standalone="no"?>
<!-- Created with Inkscape (http://www.inkscape.org/) -->

<svg
   width="210mm"
   height="297mm"
   viewBox="0 0 210 297"
   version="1.1"
   id="svg120"
   xmlns="http://www.w3.org/2000/svg"
   xmlns:svg="http://www.w3.org/2000/svg">
  <defs
     id="defs117" />
  <g
     id="layer1">
    <g
       id="layer1-5"
       transform="translate(10.336431,-16.832204)">
      <g
         id="g11658"
         style="stroke-width:5.31283;stroke-dasharray:none;paint-order:stroke fill markers">
        <g
           id="g9423"
           style="stroke-width:5.31283;stroke-dasharray:none;paint-order:stroke fill markers">
          <g
             aria-label="Tack !  "
             transform="translate(113.35615,57.539443)"
             id="text63"
             style="font-size:70.5556px;line-height:0;font-family:'Poor Richard';-inkscape-font-specification:'Poor Richard';white-space:pre;fill:#ffa856;stroke:#000000;stroke-linecap:round;stroke-linejoin:round">
            <path
               d="m -62.641968,64.642581 q 1.171333,0 1.894803,2.44602 0.723471,2.446019 0.723471,4.547529 0,2.101509 -1.343588,2.101509 -0.482314,0 -0.895726,-0.310058 -0.37896,-0.310059 -1.102431,-2.170412 -0.689019,-1.894804 -2.10151,-2.549372 -1.378039,-0.68902 -3.031686,-0.68902 -2.342666,0 -3.410646,1.102431 -1.03353,1.067981 -1.03353,3.514 v 36.586942 q 0,0.82682 0.482314,1.48139 0.516765,0.62012 2.10151,1.10243 1.584745,0.44786 1.929254,0.79237 0.34451,0.34451 0.34451,0.79238 0,1.79145 -1.894804,1.79145 -1.033529,0 -3.031686,-0.34451 -1.998156,-0.31006 -2.962784,-0.31006 -0.895725,0 -2.618274,0.27561 -1.722549,0.2756 -2.618275,0.2756 -1.06798,0 -1.825901,-0.48231 -0.757922,-0.48231 -0.757922,-1.34359 0,-0.41341 0.275608,-0.72347 0.275608,-0.34451 1.825902,-0.79237 1.550294,-0.48232 2.067058,-1.44694 0.551216,-0.96463 0.551216,-2.17041 V 71.222718 q 0,-3.341745 -4.513078,-3.341745 -2.928333,0 -4.168568,1.309137 -0.757922,0.757922 -1.102432,2.342667 -0.344509,1.550294 -0.72347,1.860353 -0.34451,0.275607 -0.861275,0.275607 -0.551215,0 -1.06798,-0.275607 -0.482314,-0.310059 -0.482314,-0.757922 0,-3.755157 0.654569,-5.856666 0.654569,-2.135961 1.894804,-2.135961 z"
               id="path332" />
            <path
               d="m -33.703146,108.67093 q 0,2.48047 3.307294,3.4451 0.826824,0.24116 1.205784,0.55121 0.413412,0.31006 0.413412,1.17134 0,0.44786 -0.551216,0.75792 -0.516764,0.34451 -1.136882,0.34451 -0.654569,0 -1.791451,-0.31006 -1.102431,-0.31006 -1.791451,-0.31006 -0.792372,0 -1.998156,0.31006 -1.205785,0.31006 -1.619196,0.31006 -0.482314,0 -0.964628,-0.34451 -0.447862,-0.34451 -0.447862,-0.68902 0,-0.55122 -0.34451,-0.55122 -0.241157,0 -0.620118,0.24116 -3.89296,2.41157 -8.406038,2.41157 -2.135961,0 -4.788686,-1.10243 -2.618275,-1.10243 -4.20302,-3.3762 -1.584745,-2.30821 -1.584745,-5.68441 0,-3.5829 3.410647,-6.338979 3.445098,-2.756078 8.853901,-2.756078 1.825902,0 3.996314,1.033529 2.204863,0.999078 2.204863,2.067059 0,0.516769 -0.447863,0.826819 -0.447863,0.31006 -1.102432,0.31006 -0.447862,0 -1.756999,-0.62011 -1.309138,-0.654573 -2.687177,-0.654573 -2.82498,0 -4.685333,1.688093 -1.860352,1.65365 -1.860352,4.44418 0,3.23839 2.13596,4.99539 2.135961,1.72255 4.92649,1.72255 2.514921,0 4.616431,-1.65365 2.135961,-1.65364 2.135961,-4.40972 v -9.336216 q 0,-2.101509 -1.41249,-3.410646 -1.37804,-1.309138 -3.720706,-1.309138 -2.997235,0 -5.822215,1.894804 -0.964628,0.654569 -1.309137,0.654569 -0.826824,0 -1.412491,-0.413412 -0.585666,-0.447863 -0.585666,-1.136882 0,-1.688098 3.066137,-2.859431 3.100588,-1.171334 6.752392,-1.171334 4.513078,0 7.269156,2.273765 2.756078,2.273764 2.756078,5.408803 z"
               id="path334" />
            <path
               d="m -1.5259377,109.87672 q 0.96462741,0 0.96462741,1.61919 0,1.03353 -3.47954881,2.68718 -3.4795488,1.61919 -7.3036069,1.61919 -6.270078,0 -10.748706,-3.7896 -4.478627,-3.82406 -4.478627,-9.61183 0,-5.133193 4.237471,-9.026153 4.23747,-3.892961 10.128587,-3.892961 3.1694901,0 7.2002545,1.309137 4.03076447,1.309138 4.03076447,2.377118 0,1.929255 0.20670587,3.135039 0.20670587,1.205784 0.20670587,1.378039 0,1.550294 -1.41249011,1.550294 -1.0679803,0 -1.6880979,-2.067059 -0.5856666,-2.067058 -2.5149214,-3.272843 -1.9292548,-1.240235 -4.7542353,-1.240235 -3.54845,0 -6.614587,2.618275 -3.031687,2.618274 -3.031687,7.406959 0,4.40973 3.410647,7.23471 3.410647,2.79053 7.096902,2.79053 1.3435879,0 2.790529,-0.34451 1.4469411,-0.34451 3.2039409,-1.41249 1.7914509,-1.06798 2.5493724,-1.06798 z"
               id="path336" />
            <path
               d="m 29.204334,110.29013 q 0.757922,0.86127 1.894804,0.86127 0.654569,0 1.550294,-1.03353 0.895725,-1.03353 1.446941,-1.03353 0.516765,0 0.895725,0.51677 0.413412,0.48231 0.413412,1.03353 0,1.757 -1.894804,3.47955 -1.894803,1.68809 -3.651803,1.68809 -1.584745,0 -3.755157,-1.55029 -2.13596,-1.55029 -6.33898,-6.51124 -3.031686,-3.5829 -3.686254,-3.5829 -0.241157,0 -0.930177,0.68902 -0.689019,0.65457 -1.481392,1.37804 -0.792372,0.72347 -0.895725,1.13688 -0.0689,0.41342 -0.0689,2.44602 0,0.93018 0.447862,1.58475 0.482314,0.65457 2.067059,0.89572 1.619196,0.20671 1.963706,0.65457 0.378961,0.41341 0.378961,1.03353 0,0.51677 -0.310059,0.79237 -0.310059,0.31006 -1.378039,0.31006 -1.03353,0 -3.066137,-0.24115 -2.032608,-0.24116 -3.0661374,-0.24116 -0.9646274,0 -2.8249802,0.24116 -1.8603528,0.24115 -2.8249802,0.24115 -2.1704116,0 -2.1704116,-1.30913 0,-0.62012 0.3445097,-0.99908 0.3445098,-0.41341 2.0670587,-0.58567 1.7569999,-0.20671 2.2737646,-1.06798 0.5167646,-0.86127 0.5167646,-2.03261 V 71.567228 q 0,-0.964628 -0.5167646,-1.653647 Q 6.1221789,69.224561 4.39963,68.811149 2.6770811,68.397738 2.2981203,67.984326 1.9191596,67.570914 1.9191596,66.985248 q 0,-0.516765 0.5856666,-0.861275 0.5856666,-0.34451 1.1713332,-0.34451 0.5856667,0 1.7569999,0.310059 1.2057843,0.310059 1.8948038,0.310059 0.7579215,0 1.8948038,-0.241157 1.1368821,-0.241157 1.5158431,-0.241157 0.68902,0 1.033529,0.34451 0.413412,0.413412 0.620118,1.860353 0.241157,1.41249 0.241157,5.925568 v 27.147372 q 0,0.86127 0.620117,0.86127 0.413412,0 2.79053,-2.446016 l 4.547529,-4.685333 q 0.37896,-0.34451 0.37896,-0.585667 0,-0.206706 -0.826823,-0.516764 -0.826824,-0.34451 -0.826824,-1.03353 0,-0.72347 0.310059,-1.06798 0.34451,-0.34451 1.41249,-0.34451 0.68902,0 2.067059,0.172255 1.41249,0.137804 2.170412,0.137804 0.930176,0 2.82498,-0.206706 1.929255,-0.241157 2.859431,-0.241157 0.999078,0 1.722549,0.413412 0.757921,0.413412 0.757921,1.136882 0,1.343588 -2.549372,1.343588 -3.755157,0 -5.167647,0.620118 -1.41249,0.620118 -3.203941,2.411568 -1.79145,1.791451 -1.998156,2.067059 -0.206706,0.241157 -0.206706,0.68902 0,0.861277 0.792372,1.688097 z"
               id="path338" />
            <path
               d="m 48.359081,67.398659 q 0,-1.274686 0.999078,-2.204862 0.999078,-0.964628 2.514922,-0.964628 1.446941,0 2.377117,1.102432 0.930176,1.06798 0.930176,2.342666 0,3.16949 -0.689019,15.227332 -0.68902,12.057843 -0.792373,14.469411 -0.103353,2.377118 -0.413411,3.34175 -0.310059,0.96462 -1.550294,0.96462 -1.446941,0 -1.550294,-1.894801 z m 3.238392,40.514351 q 1.722549,0 2.790529,0.99908 1.102431,0.99908 1.102431,2.85943 0,1.30914 -1.102431,2.23931 -1.06798,0.93018 -2.514921,0.93018 -1.412491,0 -2.583824,-1.13688 -1.136882,-1.13689 -1.136882,-2.51492 0,-1.37804 1.033529,-2.37712 1.03353,-0.99908 2.411569,-0.99908 z"
               id="path340" />
          </g>
        </g>
      </g>
      <path
         style="fill:#000000;stroke-width:0.264583"
         d="M 297.34454,199.83759 -98.196055,167.45011"
         id="path1346" />
    </g>
  </g>
</svg>
